<svg id="Layer_1" enable-background="new 0 0 512 512" height="512" viewBox="0 0 512 512" width="512" xmlns="http://www.w3.org/2000/svg" xmlns:xlink="http://www.w3.org/1999/xlink"><linearGradient id="SVGID_1_" gradientUnits="userSpaceOnUse" x1="79.576" x2="431.363" y1="432.424" y2="80.637"><stop offset="0" stop-color="#011c49"/><stop offset="1" stop-color="#00b8e0"/></linearGradient><path clip-rule="evenodd" d="m292.62 292.622c9.826-9.826 25.756-9.826 35.582 0s9.826 25.756 0 35.582c-7.849 7.848-19.589 9.426-29.005 4.737-9.554 9.554-19.105 19.103-28.659 28.656-1.451 1.472-3.468 2.385-5.698 2.385h-35.437l-76.792 76.792c-3.124 3.124-8.189 3.124-11.312 0-3.124-3.124-3.124-8.189 0-11.312l79.135-79.135c1.562-1.562 3.609-2.343 5.656-2.343l35.437-.001c8.785-8.785 17.57-17.57 26.355-26.355-4.688-9.416-3.111-21.158 4.738-29.006zm-95.924-62.184c9.416 4.689 21.157 3.111 29.006-4.738 9.826-9.826 9.826-25.756 0-35.582-9.827-9.827-25.756-9.827-35.582 0-7.849 7.849-9.427 19.59-4.737 29.006-9.553 9.553-19.105 19.105-28.657 28.658-1.472 1.451-2.384 3.467-2.384 5.697v35.437l-76.792 76.792c-3.124 3.124-3.124 8.189 0 11.312 3.124 3.124 8.189 3.124 11.312 0l79.135-79.135c1.562-1.562 2.343-3.609 2.344-5.656v-35.437c8.785-8.785 17.569-17.568 26.355-26.354zm100.665 1.838c9.416 4.688 21.157 3.111 29.005-4.738 9.826-9.826 9.826-25.756 0-35.583-9.827-9.826-25.756-9.826-35.583 0-7.849 7.849-9.426 19.591-4.737 29.007-67.77 67.77-135.539 135.539-203.309 203.309-3.124 3.124-3.124 8.189 0 11.312 3.124 3.124 8.189 3.124 11.312 0 67.771-67.768 135.544-135.539 203.312-203.307zm-238.81 96.55 52.359-52.359c-6.172-43.991 7.652-90.246 41.48-124.075 57.222-57.222 149.996-57.222 207.219 0 57.219 57.219 57.221 149.994-.002 207.217-33.828 33.828-80.086 47.652-124.075 41.48l-52.363 52.363c10.475 3.854 21.193 6.851 32.048 8.984l3.606 9.366 12.392 32.198h24.785 24.784l12.392-32.197 3.609-9.379c26.838-5.278 52.845-15.807 76.364-31.608l9.157 4.068 31.53 14.003 17.524-17.524 17.526-17.526-14.003-31.53-4.062-9.145c15.801-23.528 26.338-49.54 31.615-76.379l9.367-3.606 32.197-12.392v-24.785-24.784l-32.197-12.392-9.379-3.61c-5.277-26.838-15.807-52.844-31.607-76.365l4.068-9.157 14.002-31.529-17.524-17.524-17.526-17.526-31.529 14.002-9.147 4.063c-23.528-15.801-49.539-26.34-76.379-31.615l-3.607-9.367-12.39-32.196h-24.785-24.785l-12.391 32.196-3.61 9.38c-26.838 5.277-52.843 15.807-76.364 31.606l-9.158-4.067-31.529-14.003-17.527 17.526-17.524 17.525 14.002 31.529 4.068 9.157c-15.801 23.523-26.33 49.528-31.607 76.365l-9.379 3.61-32.196 12.391v24.785 24.785l32.196 12.391 9.378 3.609c2.132 10.852 5.124 21.569 8.977 32.041z" fill="url(#SVGID_1_)" fill-rule="evenodd"/></svg>