<svg id="a" height="24" viewBox="0 0 24 24" width="24" xmlns="http://www.w3.org/2000/svg"><g fill="#3b82f6"><path d="m14.2427 3.03c.5356.1338.8613.6768.7275 1.2129l-4 16c-.1138.4541-.5215.7573-.9692.7573-.0806 0-.1621-.0093-.2437-.0298-.5356-.1338-.8613-.6768-.7275-1.2129l4-15.9999c.1348-.5356.6777-.8623 1.2129-.7275z" opacity=".3"/><path d="m1.293 12.7073c-.3906-.3906-.3906-1.0234 0-1.4141l4-4c.3906-.3906 1.0234-.3906 1.4141 0s.3906 1.0234 0 1.4141l-3.293 3.293 3.293 3.293c.3906.3906.3906 1.0234 0 1.4141-.1953.1953-.4512.293-.707.293s-.5117-.0977-.707-.293zm17.414-5.4141c-.3906-.3906-1.0234-.3906-1.4141 0s-.3906 1.0234 0 1.4141l3.293 3.293-3.293 3.293c-.3906.3906-.3906 1.0234 0 1.4141.1953.1953.4512.293.707.293s.5117-.0977.707-.293l4-4c.3906-.3906.3906-1.0234 0-1.4141l-4-4z"/></g></svg>