<svg id="Capa_1" enable-background="new 0 0 512 512" height="512" viewBox="0 0 512 512" width="512" xmlns="http://www.w3.org/2000/svg"><g><g><g><path d="m54.333 175.519h403.333v185.665h-403.333z" fill="#fed2a4"/></g><g><path d="m54.333 175.519h403.333v67.576h-403.333z" fill="#ffbd86"/></g><g><path d="m448.227 122.84h-384.454c-6.516 0-12.158 4.524-13.575 10.884l-13.805 61.966c-1.935 8.688 4.675 16.932 13.575 16.932h412.064c8.901 0 15.511-8.245 13.575-16.932l-13.805-61.966c-1.417-6.36-7.059-10.884-13.575-10.884z" fill="#ffc344"/></g><g><path d="m245.404 10.572-106.071 67.42v44.848h233.333v-44.848l-106.071-67.42c-6.466-4.109-14.725-4.109-21.191 0z" fill="#fed2a4"/></g><g><path d="m342.667 58.924c0 18.732-15.185 33.917-33.916 33.917h-169.418v30h233.333v-44.849z" fill="#ffbd86"/></g><g><path d="m362.17 156.41-95.575-60.748c-6.466-4.11-14.725-4.11-21.191 0l-95.575 60.748c-6.537 4.155-10.496 11.363-10.496 19.109v185.665h233.333v-185.665c.001-7.746-3.959-14.954-10.496-19.109z" fill="#f5f8f9"/></g><g><path d="m139.333 266.184h233.333v95h-233.333z" fill="#e8edf2"/></g><g><path d="m190.666 218.517h130.667v142.667h-130.667z" fill="#d77f4a"/></g><g><path d="m190.666 266.184h130.667v95h-130.667z" fill="#c86d36"/></g><g><path d="m7.5 406.657v-93.982c0-11.046 8.954-20 20-20h457c11.046 0 20 8.954 20 20v93.982c0 11.046-8.954 20-20 20h-457c-11.046 0-20-8.955-20-20z" fill="#e8edf2"/></g><g><path d="m484.5 292.675h-10v83.982c0 11.046-8.954 20-20 20h-447v10c0 11.046 8.954 20 20 20h457c11.046 0 20-8.954 20-20v-93.982c0-11.046-8.955-20-20-20z" fill="#cddbdf"/></g><g><path d="m27.473 490.353c0 7.807 6.329 14.137 14.137 14.137h428.78c7.807 0 14.137-6.329 14.137-14.137v-20.78h-457.054z" fill="#fcd69a"/></g><g><path d="m444.649 426.657h-377.298c-22.024 0-39.878 17.854-39.878 39.878v3.039h457.053v-3.039c0-22.024-17.854-39.878-39.877-39.878z" fill="#91deb6"/></g></g><g><path d="m484.5 285.175h-19.333v-65.288c5.316-.778 10.146-3.513 13.568-7.782 4.084-5.095 5.612-11.672 4.192-18.046l-13.805-61.965c-2.197-9.864-10.79-16.753-20.896-16.753h-68.061v-23.695l8.039 5.11c1.248.793 2.64 1.171 4.017 1.171 2.479 0 4.907-1.229 6.337-3.478 2.222-3.496 1.188-8.131-2.307-10.353l-19.561-12.434-106.071-67.419c-8.88-5.645-20.357-5.645-29.237 0l-106.072 67.419-19.562 12.434c-3.495 2.222-4.528 6.857-2.307 10.353 1.43 2.249 3.856 3.478 6.337 3.478 1.376 0 2.769-.378 4.017-1.171l8.039-5.11v23.694h-68.061c-10.106 0-18.699 6.889-20.896 16.753l-13.805 61.965c-1.42 6.374.108 12.952 4.193 18.047 3.422 4.268 8.252 7.003 13.568 7.781v65.288h-19.333c-15.164 0-27.5 12.336-27.5 27.5v93.982c0 15.164 12.336 27.5 27.5 27.5h5.309c-7.952 8.478-12.836 19.865-12.836 32.378v3.04 20.779c0 11.931 9.706 21.637 21.637 21.637h299.724c4.143 0 7.5-3.358 7.5-7.5s-3.357-7.5-7.5-7.5h-299.724c-3.66 0-6.637-2.977-6.637-6.637v-13.279h442.053v13.279c0 3.66-2.978 6.637-6.637 6.637h-94.052c-4.143 0-7.5 3.358-7.5 7.5s3.357 7.5 7.5 7.5h94.052c11.931 0 21.637-9.706 21.637-21.637v-20.779-3.04c0-12.513-4.884-23.9-12.836-32.378h5.309c15.164 0 27.5-12.336 27.5-27.5v-93.982c.001-15.163-12.335-27.499-27.499-27.499zm-104.333 0v-65.053h70v65.053zm74.315-149.82 13.805 61.965c.425 1.908-.032 3.877-1.255 5.402-1.224 1.525-3.046 2.4-5 2.4h-81.865v-29.603c0-10.367-5.224-19.877-13.973-25.438l-31.057-19.74h113.091c3.023-.001 5.596 2.061 6.254 5.014zm-307.649-53.243 102.595-65.209c3.993-2.539 9.152-2.538 13.144 0l102.595 65.209v33.229h-53.63l-40.918-26.008c-8.88-5.645-20.357-5.645-29.237 0l-40.918 26.008h-53.63v-33.229zm-101.865 120.611c-1.223-1.525-1.68-3.494-1.255-5.402l13.806-61.966c.657-2.952 3.229-5.014 6.254-5.014h113.091l-31.057 19.74c-8.749 5.562-13.973 15.071-13.973 25.438v29.603h-81.866c-1.955 0-3.777-.875-5-2.399zm16.865 17.399h70v6.397c0 4.142 3.357 7.5 7.5 7.5s7.5-3.358 7.5-7.5v-51c0-5.208 2.624-9.985 7.02-12.779l95.575-60.748c3.993-2.539 9.152-2.538 13.144 0l95.575 60.748c4.396 2.794 7.02 7.571 7.02 12.779v109.656h-36.333v-66.658c0-4.142-3.357-7.5-7.5-7.5h-130.667c-4.143 0-7.5 3.358-7.5 7.5v66.658h-36.333v-23.652c0-4.142-3.357-7.5-7.5-7.5s-7.5 3.358-7.5 7.5v23.652h-70v-65.053zm136.334 65.053v-59.158h50.333v59.158zm65.333-59.158h50.334v59.158h-50.334zm213.22 236.057h-441.441c2.179-15.751 15.731-27.917 32.072-27.917h377.298c16.34 0 29.892 12.166 32.071 27.917zm20.28-55.417c0 6.893-5.607 12.5-12.5 12.5h-39.851-377.298-39.851c-6.893 0-12.5-5.607-12.5-12.5v-93.982c0-6.893 5.607-12.5 12.5-12.5h457c6.893 0 12.5 5.607 12.5 12.5z"/><path d="m451.893 379.091c-.015 0-.028 0-.043 0-3.455.02-7.761.037-11.347.043v-46.439c0-4.142-3.357-7.5-7.5-7.5s-7.5 3.358-7.5 7.5v53.896c0 3.653 2.633 6.775 6.233 7.392.541.093.918.158 6.898.158 2.898 0 7.112-.016 13.299-.05 4.142-.023 7.481-3.4 7.458-7.542-.022-4.128-3.375-7.458-7.498-7.458z"/><path d="m234.455 325.195c-4.143 0-7.5 3.358-7.5 7.5v18.546h-22.328v-18.546c0-4.142-3.357-7.5-7.5-7.5s-7.5 3.358-7.5 7.5v53.942c0 4.142 3.357 7.5 7.5 7.5s7.5-3.358 7.5-7.5v-20.396h22.328v20.396c0 4.142 3.357 7.5 7.5 7.5s7.5-3.358 7.5-7.5v-53.942c0-4.142-3.358-7.5-7.5-7.5z"/><path d="m172.959 373.278c-3.173-2.662-7.903-2.249-10.566.924-.447.533-.93 1.031-1.433 1.479-2.574 2.293-5.876 3.456-9.813 3.456-10.736 0-19.472-8.734-19.472-19.471s8.735-19.471 19.472-19.471c3.902 0 7.664 1.148 10.881 3.321 3.433 2.319 8.094 1.416 10.413-2.016 2.318-3.433 1.416-8.095-2.017-10.414-5.705-3.854-12.371-5.892-19.277-5.892-19.008 0-34.472 15.464-34.472 34.471s15.464 34.471 34.472 34.471c7.618 0 14.462-2.509 19.79-7.255 1.043-.929 2.034-1.951 2.946-3.038 2.663-3.172 2.249-7.903-.924-10.565z"/><path d="m86.184 353.054c-6.498-2.397-12.556-5.004-14.547-5.875-1.05-.896-1.068-2.085-.972-2.751.116-.808.714-2.787 3.759-3.704 7.187-2.162 13.922 3.115 14.147 3.294 3.172 2.625 7.871 2.205 10.524-.952 2.665-3.171 2.256-7.902-.915-10.567-.522-.439-12.961-10.694-28.083-6.138-7.731 2.329-13.204 8.435-14.28 15.935-1.013 7.056 2.047 13.843 7.984 17.714.332.216.679.405 1.041.566.313.14 7.763 3.457 16.152 6.551 1.706.629 7.222 2.958 6.589 6.5-.483 2.708-3.861 5.509-8.678 5.509-5.151 0-10.101-2.068-13.24-5.533-2.782-3.068-7.523-3.302-10.594-.521-3.069 2.782-3.302 7.525-.521 10.594 6.024 6.647 14.901 10.46 24.355 10.46 11.735 0 21.595-7.517 23.444-17.872 1.397-7.822-2.116-18.028-16.165-23.21z"/><path d="m291.5 325.195c-19.007 0-34.471 15.464-34.471 34.471s15.464 34.471 34.471 34.471 34.471-15.463 34.471-34.471-15.464-34.471-34.471-34.471zm0 53.942c-10.736 0-19.471-8.734-19.471-19.471s8.734-19.471 19.471-19.471 19.471 8.735 19.471 19.471-8.734 19.471-19.471 19.471z"/><path d="m375.184 325.195c-19.007 0-34.471 15.464-34.471 34.471s15.464 34.471 34.471 34.471 34.471-15.463 34.471-34.471-15.464-34.471-34.471-34.471zm0 53.942c-10.736 0-19.471-8.734-19.471-19.471s8.734-19.471 19.471-19.471 19.471 8.735 19.471 19.471-8.735 19.471-19.471 19.471z"/></g></g></svg>