<svg height="512" viewBox="0 0 48 48" width="512" xmlns="http://www.w3.org/2000/svg" xmlns:xlink="http://www.w3.org/1999/xlink"><linearGradient id="a" gradientUnits="userSpaceOnUse" x1="8.609" x2="40.619" y1="8.609" y2="40.619"><stop offset="0" stop-color="#9b8dff"/><stop offset=".252" stop-color="#7d79fd"/><stop offset=".555" stop-color="#5f65fb"/><stop offset=".815" stop-color="#4d58f9"/><stop offset="1" stop-color="#4654f9"/></linearGradient><rect fill="url(#a)" height="40" rx="10" width="40" x="4" y="4"/><g opacity=".9"><path d="m18 29.5a1.5 1.5 0 0 1 -1.061-.439l-4-4a1.5 1.5 0 0 1 0-2.122l4-4a1.5 1.5 0 0 1 2.122 2.122l-2.94 2.939 2.94 2.939a1.5 1.5 0 0 1 -1.061 2.561z" fill="#fff"/></g><g opacity=".9"><path d="m30 29.5a1.5 1.5 0 0 1 -1.061-2.561l2.94-2.939-2.94-2.939a1.5 1.5 0 0 1 2.122-2.122l4 4a1.5 1.5 0 0 1 0 2.122l-4 4a1.5 1.5 0 0 1 -1.061.439z" fill="#fff"/></g><g opacity=".5"><path d="m22 32.5a1.514 1.514 0 0 1 -.413-.058 1.5 1.5 0 0 1 -1.03-1.854l4-14a1.5 1.5 0 1 1 2.884.824l-4 14a1.5 1.5 0 0 1 -1.441 1.088z" fill="#fff"/></g></svg>