<svg id="Capa_1" enable-background="new 0 0 512 512" height="512" viewBox="0 0 512 512" width="512" xmlns="http://www.w3.org/2000/svg"><g><path d="m0 385.571c0 32.928 8.293 69.235 33.36 92.827 25.05 25.05 58.333 33.36 92.827 33.36h259.626c46.707 0 89.428-18.213 112.65-60.434 10.786-19.612 13.537-43.708 13.537-65.753v-259.142c0-33.323-8.007-68.966-33.36-92.827-25.05-25.05-58.327-33.36-92.827-33.36h-259.631c-33.905 0-68.286 8.34-92.823 32.876-25.301 25.302-31.925 58.407-33.359 92.827z" fill="#ff5034"/><path d="m405.152 316.435c.484-1.934.967-3.868 1.45-5.802 21.273-84.608-30.459-185.171-118.451-237.87 38.678 52.215 55.6 115.55 40.612 170.667-1.45 4.835-2.901 9.669-4.835 14.504-1.934-1.45-4.351-2.901-7.736-4.351 0 0-87.509-54.149-182.27-149.394-2.417-2.417 50.765 75.906 110.716 139.241-28.525-15.955-107.331-73.488-157.613-118.935 6.285 10.153 13.537 20.306 21.273 29.492 41.579 53.182 96.211 118.451 161.481 168.733-45.93 28.042-110.716 30.459-175.018 0-15.955-7.252-30.942-16.438-44.963-26.591 27.075 43.513 69.137 81.224 120.385 103.464 60.918 26.108 122.319 24.174 167.282 0 1.934-.967 3.868-2.417 5.802-3.384 21.756-11.12 64.302-22.24 87.509 22.24 6.769 10.152 18.856-47.865-25.624-102.014z" fill="#fff"/></g></svg>